<?xml version="1.0" encoding="UTF-8"?>
<!DOCTYPE svg PUBLIC "-//W3C//DTD SVG 1.1//EN" "http://www.w3.org/Graphics/SVG/1.1/DTD/svg11.dtd">
<svg xmlns="http://www.w3.org/2000/svg" version="1.1" width="962px" height="962px" style="shape-rendering:geometricPrecision; text-rendering:geometricPrecision; image-rendering:optimizeQuality; fill-rule:evenodd; clip-rule:evenodd" xmlns:xlink="http://www.w3.org/1999/xlink">
<g><path fill="#F5F5F5" d="M 600.5,-0.5 C 602.167,-0.5 603.833,-0.5 605.5,-0.5C 610.394,1.22399 613.894,4.55732 616,9.5C 616.667,31.1667 616.667,52.8333 616,74.5C 614.6,77.9024 612.433,80.7357 609.5,83C 597.667,93.5 585.833,104 574,114.5C 573.5,140.498 573.333,166.498 573.5,192.5C 587.5,192.5 601.5,192.5 615.5,192.5C 615.041,169.114 615.541,145.781 617,122.5C 618.141,120.391 619.641,118.558 621.5,117C 635.833,105.5 650.167,94 664.5,82.5C 665.498,74.1932 665.831,65.8599 665.5,57.5C 674.833,66.5 684.167,75.5 693.5,84.5C 693.965,88.7924 693.132,92.7924 691,96.5C 675.333,109.5 659.667,122.5 644,135.5C 643.5,154.497 643.333,173.497 643.5,192.5C 669.169,192.333 694.835,192.5 720.5,193C 741.571,196.736 755.071,208.903 761,229.5C 761.5,256.165 761.667,282.831 761.5,309.5C 780.836,309.667 800.17,309.5 819.5,309C 831.788,293.044 844.454,277.377 857.5,262C 861.208,259.868 865.208,259.035 869.5,259.5C 878.5,268.833 887.5,278.167 896.5,287.5C 888.493,287.334 880.493,287.5 872.5,288C 859.954,302.878 847.787,318.044 836,333.5C 833.92,335.123 831.754,336.623 829.5,338C 806.836,338.5 784.169,338.667 761.5,338.5C 761.5,352.167 761.5,365.833 761.5,379.5C 787.502,379.667 813.502,379.5 839.5,379C 851,366.167 862.5,353.333 874,340.5C 875.579,338.959 877.413,337.792 879.5,337C 901.5,336.333 923.5,336.333 945.5,337C 954.497,342.149 956.664,349.316 952,358.5C 950.062,361.106 947.562,362.939 944.5,364C 926.5,364.333 908.5,364.667 890.5,365C 878.534,378.634 866.201,391.967 853.5,405C 852.167,405.667 850.833,406.333 849.5,407C 820.169,407.5 790.835,407.667 761.5,407.5C 761.5,424.5 761.5,441.5 761.5,458.5C 795.84,458.833 830.173,458.5 864.5,457.5C 874.335,438.249 890.001,430.082 911.5,433C 938.024,442.544 947.857,461.044 941,488.5C 930.019,510.569 912.519,518.402 888.5,512C 880.563,509.059 874.063,504.225 869,497.5C 867.279,493.89 865.446,490.39 863.5,487C 829.502,486.5 795.502,486.333 761.5,486.5C 761.5,503.167 761.5,519.833 761.5,536.5C 790.502,536.333 819.502,536.5 848.5,537C 854.235,540.727 859.402,545.227 864,550.5C 872.129,560.298 880.629,569.798 889.5,579C 907.5,579.333 925.5,579.667 943.5,580C 954.074,585.46 956.241,593.293 950,603.5C 947.806,606.181 944.973,607.681 941.5,608C 921.833,608.667 902.167,608.667 882.5,608C 879.823,607.751 877.49,606.751 875.5,605C 863.833,592 852.167,579 840.5,566C 814.169,565.5 787.835,565.333 761.5,565.5C 761.5,579.5 761.5,593.5 761.5,607.5C 784.502,607.333 807.502,607.5 830.5,608C 834.241,609.738 837.408,612.238 840,615.5C 850.833,629 861.667,642.5 872.5,656C 887.167,656.333 901.833,656.667 916.5,657C 929.815,666.05 929.815,675.05 916.5,684C 902.122,684.183 887.789,684.683 873.5,685.5C 870.557,684.756 867.557,684.256 864.5,684C 861.149,682.072 857.649,680.572 854,679.5C 842.5,665.167 831,650.833 819.5,636.5C 800.178,635.5 780.845,635.167 761.5,635.5C 761.667,662.169 761.5,688.835 761,715.5C 756.374,734.127 744.874,746.294 726.5,752C 699.197,753.428 671.863,753.928 644.5,753.5C 644.333,772.503 644.5,791.503 645,810.5C 660.333,823.167 675.667,835.833 691,848.5C 691.471,850.246 692.138,851.913 693,853.5C 693.667,871.167 693.667,888.833 693,906.5C 688.04,916.561 680.54,919.061 670.5,914C 668.044,911.592 666.211,908.759 665,905.5C 664.667,891.167 664.333,876.833 664,862.5C 647.75,850.254 632.083,837.254 617,823.5C 615.541,800.219 615.041,776.886 615.5,753.5C 601.5,753.5 587.5,753.5 573.5,753.5C 573.333,779.502 573.5,805.502 574,831.5C 585.167,841.333 596.333,851.167 607.5,861C 611.092,863.921 613.925,867.421 616,871.5C 616.667,893.5 616.667,915.5 616,937.5C 605.994,948.569 596.994,947.903 589,935.5C 588.833,917.158 588.333,898.824 587.5,880.5C 577.315,871.148 566.982,861.981 556.5,853C 552.631,849.466 549.131,845.633 546,841.5C 545.5,812.169 545.333,782.835 545.5,753.5C 528.833,753.5 512.167,753.5 495.5,753.5C 495.167,787.507 495.5,821.507 496.5,855.5C 519.326,867.463 526.826,885.796 519,910.5C 507.147,932.343 489.314,939.51 465.5,932C 443.216,920.276 435.716,902.443 443,878.5C 448,868.167 455.667,860.5 466,855.5C 466.5,821.502 466.667,787.502 466.5,753.5C 450.167,753.5 433.833,753.5 417.5,753.5C 417.959,782.875 417.459,812.209 416,841.5C 402.686,854.478 389.02,867.145 375,879.5C 374.935,898.543 374.269,917.543 373,936.5C 367.252,945.753 359.752,947.586 350.5,942C 348.57,939.742 347.07,937.242 346,934.5C 345.333,913.5 345.333,892.5 346,871.5C 346.606,868.452 348.106,865.952 350.5,864C 363,852.833 375.5,841.667 388,830.5C 388.5,804.835 388.667,779.169 388.5,753.5C 375.167,753.5 361.833,753.5 348.5,753.5C 348.947,776.544 348.447,799.544 347,822.5C 344.872,825.63 342.372,828.463 339.5,831C 325.395,841.471 311.561,852.305 298,863.5C 297.5,871.493 297.334,879.493 297.5,887.5C 287.833,878.167 278.167,868.833 268.5,859.5C 268.282,853.435 270.616,848.602 275.5,845C 290.273,833.861 304.773,822.361 319,810.5C 319.5,791.503 319.667,772.503 319.5,753.5C 294.498,753.667 269.498,753.5 244.5,753C 222.214,750.275 208.047,738.109 202,716.5C 201.5,689.502 201.333,662.502 201.5,635.5C 182.164,635.333 162.83,635.5 143.5,636C 130.833,651.333 118.167,666.667 105.5,682C 101.454,684.174 97.1209,685.007 92.5,684.5C 83.5551,675.22 74.5551,665.886 65.5,656.5C 74.1922,656.831 82.8589,656.498 91.5,655.5C 104.329,639.177 117.662,623.344 131.5,608C 154.768,606.531 178.101,606.031 201.5,606.5C 201.5,592.833 201.5,579.167 201.5,565.5C 175.165,565.333 148.831,565.5 122.5,566C 110.145,580.02 97.478,593.686 84.5,607C 83.1667,607.333 81.8333,607.667 80.5,608C 60.8333,608.667 41.1667,608.667 21.5,608C 9.36624,604.616 5.86624,597.116 11,585.5C 13.1005,582.533 15.9338,580.7 19.5,580C 37.5,579.667 55.5,579.333 73.5,579C 85.7991,565.033 98.4658,551.366 111.5,538C 112.5,537.667 113.5,537.333 114.5,537C 143.498,536.5 172.498,536.333 201.5,536.5C 201.5,519.833 201.5,503.167 201.5,486.5C 167.493,486.167 133.493,486.5 99.5,487.5C 87.6891,511.388 69.0225,519.221 43.5,511C 24.9449,501.058 17.1116,485.558 20,464.5C 27.5266,440.814 43.6932,430.314 68.5,433C 82.2264,436.556 92.2264,444.723 98.5,457.5C 132.827,458.5 167.16,458.833 201.5,458.5C 201.5,441.5 201.5,424.5 201.5,407.5C 171.831,407.667 142.165,407.5 112.5,407C 110.998,406.417 109.665,405.584 108.5,404.5C 96.3155,391.483 84.3155,378.316 72.5,365C 54.5,364.667 36.5,364.333 18.5,364C 8.74557,359.33 6.24557,352.164 11,342.5C 13.3876,339.366 16.5543,337.533 20.5,337C 41.5,336.333 62.5,336.333 83.5,337C 85.5873,337.792 87.4207,338.959 89,340.5C 100.5,353.333 112,366.167 123.5,379C 149.498,379.5 175.498,379.667 201.5,379.5C 201.5,365.833 201.5,352.167 201.5,338.5C 177.768,338.97 154.101,338.47 130.5,337C 116.902,321.627 103.902,305.793 91.5,289.5C 76.5678,287.835 61.5678,287.001 46.5,287C 37.8675,281.77 35.7009,274.604 40,265.5C 41.9384,262.894 44.4384,261.061 47.5,260C 65.5,259.333 83.5,259.333 101.5,260C 104.562,261.061 107.062,262.894 109,265.5C 120.139,280.273 131.639,294.773 143.5,309C 162.83,309.5 182.164,309.667 201.5,309.5C 201.333,282.831 201.5,256.165 202,229.5C 207.281,208.78 220.448,196.613 241.5,193C 267.165,192.5 292.831,192.333 318.5,192.5C 318.667,173.164 318.5,153.83 318,134.5C 302.333,121.833 286.667,109.167 271,96.5C 269.438,94.0427 268.438,91.376 268,88.5C 267.073,71.455 267.407,54.455 269,37.5C 275.022,28.4642 282.522,26.7976 291.5,32.5C 293.21,34.7079 294.71,37.0412 296,39.5C 296.333,53.8333 296.667,68.1667 297,82.5C 311.227,94.3611 325.727,105.861 340.5,117C 342.709,118.873 344.542,121.04 346,123.5C 347.458,146.447 347.958,169.447 347.5,192.5C 361.167,192.5 374.833,192.5 388.5,192.5C 388.667,166.498 388.5,140.498 388,114.5C 375.5,103.333 363,92.1667 350.5,81C 348.898,79.0653 347.731,76.8987 347,74.5C 346.333,52.8333 346.333,31.1667 347,9.5C 349.313,3.35204 353.813,0.685377 360.5,1.5C 367.187,0.685377 371.687,3.35204 374,9.5C 374.333,27.8333 374.667,46.1667 375,64.5C 388.316,76.3155 401.483,88.3155 414.5,100.5C 415.584,101.665 416.417,102.998 417,104.5C 417.5,133.831 417.667,163.165 417.5,192.5C 433.833,192.5 450.167,192.5 466.5,192.5C 466.833,158.493 466.5,124.493 465.5,90.5C 446.226,80.6183 438.059,64.9516 441,43.5C 449.335,18.5777 466.502,8.41107 492.5,13C 511.561,19.4106 521.561,32.7439 522.5,53C 521.646,71.5973 512.646,84.0973 495.5,90.5C 495.5,124.5 495.5,158.5 495.5,192.5C 512.167,192.5 528.833,192.5 545.5,192.5C 545.032,162.783 545.532,133.117 547,103.5C 550.799,98.6994 554.966,94.1994 559.5,90C 569.298,81.8707 578.798,73.3707 588,64.5C 588.333,47.1667 588.667,29.8333 589,12.5C 590.58,6.09108 594.414,1.75774 600.5,-0.5 Z M 477.5,38.5 C 492.475,38.6284 497.309,45.6284 492,59.5C 485.189,66.4759 478.189,66.8093 471,60.5C 465.609,50.844 467.776,43.5107 477.5,38.5 Z M 242.5,220.5 C 401.834,220.333 561.167,220.5 720.5,221C 728.702,223.874 733.202,229.707 734,238.5C 734.133,381.187 734.3,523.854 734.5,666.5C 734.333,680.167 734.167,693.833 734,707.5C 733.197,716.639 728.363,722.473 719.5,725C 615.805,725.03 512.139,725.03 408.5,725C 406.645,724.578 404.811,724.078 403,723.5C 401.189,724.078 399.355,724.578 397.5,725C 360.64,724.958 323.807,725.125 287,725.5C 272.5,725.333 258,725.167 243.5,725C 234.637,722.473 229.803,716.639 229,707.5C 228.833,693.833 228.667,680.167 228.5,666.5C 228.425,523.853 228.592,381.187 229,238.5C 229.913,229.622 234.413,223.622 242.5,220.5 Z M 283.5,274.5 C 283.833,274.5 284.167,274.5 284.5,274.5C 415.833,274.5 547.167,274.5 678.5,274.5C 678.5,406.167 678.5,537.833 678.5,669.5C 678.5,669.833 678.5,670.167 678.5,670.5C 546.833,670.5 415.167,670.5 283.5,670.5C 283.5,538.5 283.5,406.5 283.5,274.5 Z M 55.5,459.5 C 68.6296,457.943 74.463,463.61 73,476.5C 68.1211,485.763 60.9544,487.929 51.5,483C 46.8044,476.869 46.3044,470.369 50,463.5C 52.0153,462.303 53.8487,460.97 55.5,459.5 Z M 898.5,459.5 C 914.049,459.576 918.882,466.91 913,481.5C 904.987,487.365 897.654,486.698 891,479.5C 887.683,470.492 890.183,463.825 898.5,459.5 Z M 480.5,879.5 C 493.476,881.887 497.31,889.22 492,901.5C 485.603,907.569 478.769,908.069 471.5,903C 465.98,895.413 466.647,888.413 473.5,882C 475.927,881.098 478.26,880.264 480.5,879.5 Z"/></g>
<g><path fill="#F5F5F5" d="M 693.5,82.5 C 684.193,73.5275 674.86,64.5275 665.5,55.5C 665.334,50.1563 665.501,44.8229 666,39.5C 671.118,29.0953 678.618,26.5953 688.5,32C 690.884,34.3792 692.384,37.2125 693,40.5C 693.5,54.496 693.667,68.496 693.5,82.5 Z"/></g>
<g><path fill="#F5F5F5" d="M 665.5,55.5 C 674.86,64.5275 684.193,73.5275 693.5,82.5C 693.5,83.1667 693.5,83.8333 693.5,84.5C 684.167,75.5 674.833,66.5 665.5,57.5C 665.5,56.8333 665.5,56.1667 665.5,55.5 Z"/></g>
<g><path fill="#F5F5F5" d="M 702.5,693.5 C 694.806,685.14 686.806,677.14 678.5,669.5C 678.5,537.833 678.5,406.167 678.5,274.5C 547.167,274.5 415.833,274.5 284.5,274.5C 276.5,266.167 268.5,257.833 260.5,249.5C 261.6,248.442 262.934,247.608 264.5,247C 408.833,246.333 553.167,246.333 697.5,247C 702.428,248.927 705.594,252.427 707,257.5C 707.667,400.167 707.667,542.833 707,685.5C 706.246,688.684 704.746,691.351 702.5,693.5 Z"/></g>
<g><path fill="#F5F5F5" d="M 259.5,250.5 C 267.167,258.833 275.167,266.833 283.5,274.5C 283.5,406.5 283.5,538.5 283.5,670.5C 415.167,670.5 546.833,670.5 678.5,670.5C 686.167,678.5 693.833,686.5 701.5,694.5C 700.317,695.504 698.984,696.338 697.5,697C 553.167,697.667 408.833,697.667 264.5,697C 259.153,694.985 255.986,691.151 255,685.5C 254.333,543.5 254.333,401.5 255,259.5C 255.022,255.675 256.522,252.675 259.5,250.5 Z"/></g>
<g><path fill="#F5F5F5" d="M 260.5,249.5 C 268.5,257.833 276.5,266.167 284.5,274.5C 284.167,274.5 283.833,274.5 283.5,274.5C 275.167,266.833 267.167,258.833 259.5,250.5C 259.5,249.833 259.833,249.5 260.5,249.5 Z"/></g>
<g><path fill="#F5F5F5" d="M 869.5,259.5 C 870.167,259.5 870.833,259.5 871.5,259.5C 880.5,268.833 889.5,278.167 898.5,287.5C 897.833,287.5 897.167,287.5 896.5,287.5C 887.5,278.167 878.5,268.833 869.5,259.5 Z"/></g>
<g><path fill="#F5F5F5" d="M 871.5,259.5 C 886.17,259.333 900.837,259.5 915.5,260C 924.965,264.727 927.465,271.894 923,281.5C 921.5,283 920,284.5 918.5,286C 911.95,287.42 905.284,287.92 898.5,287.5C 889.5,278.167 880.5,268.833 871.5,259.5 Z"/></g>
<g><path fill="#F5F5F5" d="M 63.5,656.5 C 72.5,665.833 81.5,675.167 90.5,684.5C 75.8295,684.667 61.1629,684.5 46.5,684C 35.9038,676.765 34.9038,668.432 43.5,659C 44.8333,658.333 46.1667,657.667 47.5,657C 52.8229,656.501 58.1563,656.334 63.5,656.5 Z"/></g>
<g><path fill="#F5F5F5" d="M 63.5,656.5 C 64.1667,656.5 64.8333,656.5 65.5,656.5C 74.5551,665.886 83.5551,675.22 92.5,684.5C 91.8333,684.5 91.1667,684.5 90.5,684.5C 81.5,675.167 72.5,665.833 63.5,656.5 Z"/></g>
<g><path fill="#F5F5F5" d="M 678.5,669.5 C 686.806,677.14 694.806,685.14 702.5,693.5C 702.5,694.167 702.167,694.5 701.5,694.5C 693.833,686.5 686.167,678.5 678.5,670.5C 678.5,670.167 678.5,669.833 678.5,669.5 Z"/></g>
<g><path fill="#F5F5F5" d="M 268.5,859.5 C 278.167,868.833 287.833,878.167 297.5,887.5C 297.5,888.167 297.5,888.833 297.5,889.5C 287.833,880.167 278.167,870.833 268.5,861.5C 268.5,860.833 268.5,860.167 268.5,859.5 Z"/></g>
<g><path fill="#F5F5F5" d="M 268.5,861.5 C 278.167,870.833 287.833,880.167 297.5,889.5C 297.666,894.511 297.499,899.511 297,904.5C 293.015,915.832 285.515,918.998 274.5,914C 271.533,911.9 269.7,909.066 269,905.5C 268.5,890.837 268.333,876.17 268.5,861.5 Z"/></g>
</svg>
